<?xml version="1.0" standalone="no"?>
<!DOCTYPE svg PUBLIC "-//W3C//DTD SVG 20010904//EN"
 "http://www.w3.org/TR/2001/REC-SVG-20010904/DTD/svg10.dtd">
<svg version="1.0" xmlns="http://www.w3.org/2000/svg"
 width="24pt" height="24pt" viewBox="0 0 24 24"
 preserveAspectRatio="xMidYMid meet">
<metadata>
Created by potrace 1.16, written by Peter Selinger 2001-2019
</metadata>
<g transform="translate(0.000000,24.000000) scale(0.004687,-0.004687)"
fill="#000000" stroke="none">
<path d="M310 2810 l0 -2000 2250 0 2250 0 0 2000 0 2000 -2250 0 -2250 0 0
-2000z m3898 1484 l22 -15 0 -1469 0 -1469 -22 -15 c-20 -14 -193 -16 -1648
-16 -1455 0 -1628 2 -1648 16 l-22 15 0 1469 0 1469 22 15 c20 14 193 16 1648
16 1455 0 1628 -2 1648 -16z"/>
<path d="M980 2810 l0 -1400 765 0 765 0 0 1400 0 1400 -765 0 -765 0 0 -1400z
m1212 482 c19 -19 19 -945 0 -964 -17 -17 -206 -24 -244 -9 -22 8 -28 17 -28
41 0 39 27 50 121 50 l69 0 0 400 0 400 -69 0 c-94 0 -121 11 -121 50 0 22 6
33 23 40 33 14 233 8 249 -8z"/>
<path d="M2610 2810 l0 -1400 765 0 765 0 0 1400 0 1400 -765 0 -765 0 0
-1400z m564 490 c20 -7 26 -16 26 -40 0 -39 -27 -50 -121 -50 l-69 0 0 -400 0
-400 69 0 c94 0 121 -11 121 -50 0 -24 -6 -33 -27 -41 -39 -15 -228 -8 -245 9
-10 10 -14 109 -16 455 -2 243 0 457 3 475 4 21 14 36 28 42 30 12 200 12 231
0z"/>
<path d="M1210 510 l0 -200 162 2 162 3 78 195 c43 107 78 196 78 197 0 2
-108 3 -240 3 l-240 0 0 -200z"/>
<path d="M3330 707 c0 -1 35 -90 78 -197 l78 -195 162 -3 162 -2 0 200 0 200
-240 0 c-132 0 -240 -1 -240 -3z"/>
</g>
</svg>
