<?xml version="1.0" standalone="no"?>
<!DOCTYPE svg PUBLIC "-//W3C//DTD SVG 20010904//EN"
 "http://www.w3.org/TR/2001/REC-SVG-20010904/DTD/svg10.dtd">
<svg version="1.0" xmlns="http://www.w3.org/2000/svg"
 width="24.000000pt" height="24.000000pt" viewBox="0 0 24.000000 24.000000"
 preserveAspectRatio="xMidYMid meet">
<metadata>
Created by potrace 1.16, written by Peter Selinger 2001-2019
</metadata>
<g transform="translate(0.000000,24.000000) scale(0.004687,-0.004687)"
fill="#000000" stroke="none">
<path d="M186 4934 l-26 -27 0 -2097 0 -2097 26 -27 27 -26 423 0 424 0 0
-224 0 -223 26 -27 27 -26 247 0 247 0 24 24 c14 14 61 119 113 250 l90 226
676 0 676 0 90 -226 c52 -131 99 -236 113 -250 l24 -24 247 0 247 0 27 26 26
27 0 223 0 224 474 0 473 0 27 26 26 27 0 2097 0 2097 -26 27 -27 26 -2347 0
-2347 0 -27 -26z m4574 -2124 l0 -1950 -2200 0 -2200 0 0 1950 0 1950 2200 0
2200 0 0 -1950z m-3160 -2157 c0 -4 -26 -72 -57 -150 l-57 -143 -113 0 -113 0
0 150 0 150 170 0 c94 0 170 -3 170 -7z m2160 -143 l0 -150 -113 0 -113 0 -57
143 c-31 78 -57 146 -57 150 0 4 77 7 170 7 l170 0 0 -150z"/>
<path d="M859 4331 l-29 -29 0 -1492 0 -1492 29 -29 29 -29 1672 0 1672 0 29
29 29 29 0 1492 0 1492 -29 29 -29 29 -1672 0 -1672 0 -29 -29z m1601 -1521
l0 -1350 -710 0 -710 0 0 1350 0 1350 710 0 710 0 0 -1350z m1620 0 l0 -1350
-710 0 -710 0 0 1350 0 1350 710 0 710 0 0 -1350z"/>
<path d="M1886 3334 c-21 -21 -26 -36 -26 -74 0 -38 5 -53 26 -74 24 -23 34
-26 100 -26 l74 0 0 -350 0 -350 -74 0 c-66 0 -76 -3 -100 -26 -37 -38 -37
-110 0 -148 26 -26 28 -26 174 -26 146 0 148 0 174 26 l26 27 0 497 0 497 -26
27 c-26 26 -28 26 -174 26 -146 0 -148 0 -174 -26z"/>
<path d="M2886 3334 l-26 -27 0 -497 0 -497 26 -27 c26 -26 28 -26 174 -26
146 0 148 0 174 26 21 21 26 36 26 74 0 38 -5 53 -26 74 -24 23 -34 26 -100
26 l-74 0 0 350 0 350 74 0 c66 0 76 3 100 26 21 21 26 36 26 74 0 38 -5 53
-26 74 -26 26 -28 26 -174 26 -146 0 -148 0 -174 -26z"/>
</g>
</svg>
